<?xml version="1.0" encoding="UTF-8" standalone="no"?>
<!-- Created with Inkscape (http://www.inkscape.org/) -->

<svg
   width="107.97049mm"
   height="25.18166mm"
   viewBox="0 0 107.97049 25.18166"
   version="1.1"
   id="svg1"
   inkscape:version="1.3.1 (9b9bdc1480, 2023-11-25, custom)"
   sodipodi:docname="blog.svg"
   xmlns:inkscape="http://www.inkscape.org/namespaces/inkscape"
   xmlns:sodipodi="http://sodipodi.sourceforge.net/DTD/sodipodi-0.dtd"
   xmlns="http://www.w3.org/2000/svg"
   xmlns:svg="http://www.w3.org/2000/svg">
  <sodipodi:namedview
     id="namedview1"
     pagecolor="#ffffff"
     bordercolor="#000000"
     borderopacity="0.25"
     inkscape:showpageshadow="2"
     inkscape:pageopacity="0.0"
     inkscape:pagecheckerboard="0"
     inkscape:deskcolor="#d1d1d1"
     inkscape:document-units="mm"
     inkscape:zoom="1.4916699"
     inkscape:cx="177.98844"
     inkscape:cy="99.888052"
     inkscape:window-width="2560"
     inkscape:window-height="1379"
     inkscape:window-x="0"
     inkscape:window-y="30"
     inkscape:window-maximized="1"
     inkscape:current-layer="layer1" />
  <defs
     id="defs1" />
  <g
     inkscape:label="Layer 1"
     inkscape:groupmode="layer"
     id="layer1"
     transform="translate(-0.99673427,-1.2728041)">
    <path
       style="fill:#00c88c;fill-opacity:1;stroke-width:1.8354"
       d="m 13.587563,10.85358 c 1.651858,0 2.973344,1.358195 2.973344,3.010053 0,1.651861 -1.321486,2.973341 -2.973344,2.973341 -1.688566,0 -3.010052,-1.32148 -3.010052,-2.973341 0,-1.651858 1.321486,-3.010053 3.010052,-3.010053 z"
       id="path17" />
    <path
       style="fill:#111111;stroke-width:1.8354"
       d="m 13.587563,1.2728041 c 3.450548,0 6.607433,1.43161 8.883325,3.670796 l -2.899928,2.973344 c -1.541734,-1.541734 -3.670796,-2.496141 -5.983397,-2.496141 -4.6619104,0 -8.4061218,3.780919 -8.4061218,8.4428299 0,4.625201 3.7442114,8.442831 8.4061218,8.442831 2.312601,0 4.441663,-0.99112 5.983397,-2.49614 l 2.899928,2.93663 c -2.275892,2.31261 -5.432777,3.70751 -8.883325,3.70751 -6.9745116,0 -12.59082873,-5.65303 -12.59082873,-12.590831 0,-6.9745119 5.61631713,-12.5908289 12.59082873,-12.5908289 z"
       id="path1" />
    <path
       style="font-size:15.5222px;font-family:Meticula-ExtraBold;-inkscape-font-specification:Meticula-ExtraBold;letter-spacing:-0.423333px;stroke-width:0.264583"
       d="m 25.41837,10.852944 q 0.698499,0 1.303865,0.263878 0.620888,0.263877 1.071032,0.729543 0.450143,0.450144 0.698499,1.071032 0.263877,0.620888 0.263877,1.350431 v 4.79636 h -2.46803 v -4.672182 q 0,-0.558799 -0.434621,-0.91581 -0.434622,-0.372533 -1.086554,-0.372533 -0.698499,0 -1.117599,0.4191 -0.419099,0.403577 -0.419099,1.055509 v 4.485916 H 20.746188 V 8.1986483 h 2.483552 v 3.5701057 q 0.310444,-0.419099 0.900288,-0.667454 0.589843,-0.248356 1.288342,-0.248356 z m 10.566381,4.190994 q 0,-0.419099 -0.139699,-0.77611 -0.124178,-0.35701 -0.372533,-0.620888 -0.232833,-0.263877 -0.574322,-0.403577 -0.325966,-0.155222 -0.714021,-0.155222 -0.388055,0 -0.729543,0.155222 -0.325966,0.1397 -0.574321,0.403577 -0.232833,0.248356 -0.372533,0.620888 -0.124178,0.357011 -0.124178,0.77611 0,0.853721 0.496711,1.396998 0.49671,0.527755 1.288342,0.527755 0.791632,0 1.303865,-0.543277 0.512232,-0.543277 0.512232,-1.381476 z m -2.173108,-4.175471 q 1.365954,0 2.173108,0.900287 v -0.77611 h 2.46803 v 8.071544 h -2.46803 v -0.77611 q -0.915809,0.91581 -2.142063,0.91581 -0.791632,0 -1.505653,-0.341489 -0.714022,-0.341488 -1.257299,-0.915809 -0.527754,-0.589844 -0.853721,-1.365954 -0.310444,-0.77611 -0.310444,-1.629831 0,-0.838199 0.310444,-1.583264 0.310444,-0.745066 0.838199,-1.303865 0.527755,-0.558799 1.226254,-0.869243 0.714021,-0.325966 1.521175,-0.325966 z m 10.938913,-0.01552 q 0.698499,0 1.303865,0.263878 0.605365,0.263877 1.039987,0.729543 0.450144,0.450144 0.698499,1.071032 0.248355,0.620888 0.248355,1.350431 v 4.79636 h -2.452507 v -4.625615 q 0,-0.589844 -0.4191,-0.962377 -0.419099,-0.372533 -1.039987,-0.372533 -0.651933,0 -1.071032,0.4191 -0.403577,0.419099 -0.403577,1.055509 v 4.485916 h -2.46803 v -8.071544 h 2.46803 v 0.77611 q 0.310444,-0.434621 0.869243,-0.667454 0.558799,-0.248356 1.226254,-0.248356 z m 4.341972,4.082339 q 0,-0.838199 0.294921,-1.583264 0.310444,-0.745066 0.822677,-1.288343 0.527755,-0.558799 1.226254,-0.869243 0.698499,-0.325966 1.490131,-0.325966 1.334909,0 2.235197,0.900287 v -0.760588 h 2.483552 v 7.310956 q 0,0.900288 -0.325967,1.629831 -0.310444,0.745066 -0.884765,1.272821 -0.574321,0.527755 -1.396998,0.807154 -0.807154,0.294922 -1.785053,0.294922 -1.893708,0 -3.073395,-1.148643 l 0.605365,-1.831619 q 0.357011,0.388055 0.91581,0.605365 0.558799,0.217311 1.241776,0.217311 0.465666,0 0.869243,-0.108655 0.403577,-0.108656 0.698499,-0.310444 0.294922,-0.186267 0.465666,-0.450144 0.170744,-0.263877 0.170744,-0.574321 v -0.4191 q -0.434621,0.434622 -1.008943,0.667455 -0.558799,0.232833 -1.195209,0.232833 -0.77611,0 -1.474609,-0.341489 -0.698499,-0.341488 -1.226254,-0.931332 -0.527754,-0.589843 -0.838198,-1.365953 -0.310444,-0.77611 -0.310444,-1.629831 z m 4.253082,2.017886 q 0.403577,0 0.729544,-0.1397 0.325966,-0.1397 0.574321,-0.388055 0.248355,-0.248355 0.372533,-0.589844 0.1397,-0.341488 0.1397,-0.760587 0,-0.4191 -0.1397,-0.77611 -0.1397,-0.372533 -0.388055,-0.63641 -0.248355,-0.2794 -0.589844,-0.4191 -0.325966,-0.155222 -0.714021,-0.155222 -0.77611,0 -1.27282,0.543277 -0.481188,0.543277 -0.481188,1.41252 0,0.869243 0.481188,1.396998 0.49671,0.512233 1.288342,0.512233 z m 11.264879,-2.856085 q -0.496711,-1.055509 -1.567742,-1.055509 -1.102077,0 -1.598787,1.055509 z m 1.459087,3.771895 q -0.232833,0.294921 -0.589844,0.543277 -0.341488,0.232833 -0.760588,0.403577 -0.419099,0.170744 -0.884765,0.263877 -0.450144,0.108656 -0.900288,0.108656 -0.853721,0 -1.614309,-0.325967 -0.760587,-0.341488 -1.334909,-0.900287 -0.558799,-0.574322 -0.900287,-1.334909 -0.325967,-0.760588 -0.325967,-1.614309 0,-0.869243 0.341489,-1.614309 0.341488,-0.760588 0.931332,-1.319387 0.589843,-0.558799 1.381476,-0.884765 0.807154,-0.325966 1.707442,-0.325966 0.977898,0 1.785053,0.388055 0.807154,0.388055 1.365953,1.071031 0.558799,0.667455 0.822677,1.598787 0.263877,0.931332 0.170744,2.033408 h -5.836347 q 0.217311,0.465666 0.714021,0.760588 0.49671,0.294922 1.086554,0.294922 0.403577,0 0.714021,-0.1397 0.325966,-0.155222 0.651933,-0.496711 z m 4.82315,-2.825041 q 0,0.838199 0.512233,1.381476 0.512232,0.543277 1.303864,0.543277 0.791633,0 1.288343,-0.527755 0.49671,-0.543277 0.49671,-1.396998 0,-0.419099 -0.139699,-0.77611 -0.124178,-0.372532 -0.372533,-0.620888 -0.232833,-0.263877 -0.574322,-0.403577 -0.325966,-0.155222 -0.714021,-0.155222 -0.388055,0 -0.729543,0.155222 -0.325966,0.1397 -0.574322,0.403577 -0.232832,0.263878 -0.372532,0.620888 -0.124178,0.357011 -0.124178,0.77611 z m 2.173108,-4.175471 q 0.807154,0 1.505653,0.325966 0.714022,0.310444 1.241776,0.869243 0.527755,0.558799 0.838199,1.303865 0.310444,0.745065 0.310444,1.583264 0,0.853721 -0.325966,1.629831 -0.310444,0.77611 -0.853721,1.365954 -0.527755,0.574321 -1.241776,0.915809 -0.714021,0.341489 -1.505653,0.341489 -1.226254,0 -2.142064,-0.91581 v 0.77611 h -2.46803 V 8.1986483 h 2.46803 v 3.5701057 q 0.807154,-0.900287 2.173108,-0.900287 z M 80.558818,8.2296927 V 19.064188 H 78.10631 V 8.2296927 Z m 7.213577,6.8142453 q 0,-0.403577 -0.1397,-0.760587 -0.1397,-0.357011 -0.388055,-0.620888 -0.248355,-0.263878 -0.574321,-0.4191 -0.325966,-0.155222 -0.698499,-0.155222 -0.372533,0 -0.698499,0.155222 -0.325966,0.155222 -0.574322,0.434622 -0.248355,0.263877 -0.388055,0.620888 -0.139699,0.341488 -0.139699,0.745065 0,0.388055 0.139699,0.745066 0.1397,0.341488 0.388055,0.605366 0.248356,0.248355 0.574322,0.403577 0.325966,0.155222 0.698499,0.155222 0.372533,0 0.698499,-0.1397 0.325966,-0.155222 0.574321,-0.419099 0.248355,-0.263878 0.388055,-0.605366 0.1397,-0.357011 0.1397,-0.745066 z m -6.06918,0 q 0,-0.869243 0.325966,-1.629831 0.341488,-0.760587 0.91581,-1.334909 0.589843,-0.574321 1.365953,-0.900287 0.77611,-0.325967 1.660876,-0.325967 0.884765,0 1.660875,0.325967 0.77611,0.325966 1.350431,0.900287 0.589844,0.558799 0.91581,1.334909 0.341489,0.760588 0.341489,1.629831 0,0.853721 -0.341489,1.614309 -0.325966,0.760588 -0.900287,1.319387 -0.574322,0.558799 -1.365954,0.884765 -0.77611,0.325967 -1.660875,0.325967 -0.884766,0 -1.660876,-0.325967 -0.77611,-0.325966 -1.365953,-0.884765 -0.574322,-0.574321 -0.91581,-1.319387 -0.325966,-0.760588 -0.325966,-1.614309 z M 90.7484,14.935283 q 0,-0.838199 0.294922,-1.583264 0.310444,-0.745066 0.822676,-1.288343 0.527755,-0.558799 1.226254,-0.869243 0.698499,-0.325966 1.490131,-0.325966 1.334909,0 2.235197,0.900287 v -0.760588 h 2.483552 v 7.310956 q 0,0.900288 -0.325966,1.629831 -0.310444,0.745066 -0.884766,1.272821 -0.574321,0.527755 -1.396998,0.807154 -0.807154,0.294922 -1.785053,0.294922 -1.893708,0 -3.073395,-1.148643 l 0.605366,-1.831619 q 0.35701,0.388055 0.915809,0.605365 0.5588,0.217311 1.241776,0.217311 0.465666,0 0.869244,-0.108655 0.403577,-0.108656 0.698499,-0.310444 0.294921,-0.186267 0.465666,-0.450144 0.170744,-0.263877 0.170744,-0.574321 v -0.4191 q -0.434622,0.434622 -1.008943,0.667455 -0.558799,0.232833 -1.19521,0.232833 -0.77611,0 -1.474609,-0.341489 Q 92.424797,18.520911 91.897043,17.931067 91.369288,17.341224 91.058844,16.565114 90.7484,15.789004 90.7484,14.935283 Z m 4.253083,2.017886 q 0.403577,0 0.729543,-0.1397 0.325966,-0.1397 0.574321,-0.388055 0.248356,-0.248355 0.372533,-0.589844 0.1397,-0.341488 0.1397,-0.760587 0,-0.4191 -0.1397,-0.77611 -0.1397,-0.372533 -0.388055,-0.63641 -0.248355,-0.2794 -0.589843,-0.4191 -0.325967,-0.155222 -0.714022,-0.155222 -0.77611,0 -1.27282,0.543277 -0.481188,0.543277 -0.481188,1.41252 0,0.869243 0.481188,1.396998 0.49671,0.512233 1.288343,0.512233 z m 5.413007,-2.017886 q 0,-0.838199 0.29492,-1.583264 0.31045,-0.745066 0.82268,-1.288343 0.52775,-0.558799 1.22625,-0.869243 0.6985,-0.325966 1.49014,-0.325966 1.3349,0 2.23519,0.900287 v -0.760588 h 2.48355 v 7.310956 q 0,0.900288 -0.32596,1.629831 -0.31045,0.745066 -0.88477,1.272821 -0.57432,0.527755 -1.397,0.807154 -0.80715,0.294922 -1.78505,0.294922 -1.89371,0 -3.07339,-1.148643 l 0.60536,-1.831619 q 0.35701,0.388055 0.91581,0.605365 0.5588,0.217311 1.24178,0.217311 0.46566,0 0.86924,-0.108655 0.40358,-0.108656 0.6985,-0.310444 0.29492,-0.186267 0.46567,-0.450144 0.17074,-0.263877 0.17074,-0.574321 v -0.4191 q -0.43462,0.434622 -1.00894,0.667455 -0.5588,0.232833 -1.19521,0.232833 -0.77611,0 -1.47461,-0.341489 -0.6985,-0.341488 -1.22626,-0.931332 -0.52775,-0.589843 -0.83819,-1.365953 -0.31045,-0.77611 -0.31045,-1.629831 z m 4.25308,2.017886 q 0.40358,0 0.72955,-0.1397 0.32596,-0.1397 0.57432,-0.388055 0.24835,-0.248355 0.37253,-0.589844 0.1397,-0.341488 0.1397,-0.760587 0,-0.4191 -0.1397,-0.77611 -0.1397,-0.372533 -0.38805,-0.63641 -0.24836,-0.2794 -0.58985,-0.4191 -0.32596,-0.155222 -0.71402,-0.155222 -0.77611,0 -1.27282,0.543277 -0.48119,0.543277 -0.48119,1.41252 0,0.869243 0.48119,1.396998 0.49671,0.512233 1.28834,0.512233 z"
       id="text1"
       aria-label="hangeblogg" />
  </g>
</svg>
