<svg width="100" height="100" viewBox="0 0 100 100" fill="none" xmlns="http://www.w3.org/2000/svg">
<g filter="url(#filter0_b_28_788)">
<rect width="100" height="100" rx="11" fill="url(#paint0_linear_28_788)"/>
<rect x="0.5" y="0.5" width="99" height="99" rx="10.5" stroke="white" stroke-opacity="0.4"/>
<path d="M63.5495 41.279V34.9374C64.3876 34.5457 65.0971 33.924 65.5956 33.1448C66.0941 32.3655 66.361 31.4607 66.3653 30.5356V30.3901C66.3653 27.693 64.1788 25.5065 61.4819 25.5065H61.3362C58.6391 25.5065 56.4526 27.693 56.4526 30.3901V30.5356C56.4569 31.4607 56.7238 32.3655 57.2223 33.1448C57.7208 33.924 58.4303 34.5457 59.2684 34.9374V41.279C56.8598 41.6479 54.5914 42.6466 52.6929 44.1741L35.3005 30.6272C35.4245 30.1795 35.4892 29.7191 35.4965 29.257C35.4986 28.1687 35.1779 27.1041 34.5749 26.198C33.9719 25.2919 33.1138 24.585 32.109 24.1667C31.1042 23.7484 29.998 23.6375 28.9301 23.848C27.8623 24.0586 26.8809 24.581 26.11 25.3494C25.3392 26.1177 24.8135 27.0974 24.5996 28.1646C24.3856 29.2317 24.4929 30.3383 24.908 31.3445C25.323 32.3506 26.0271 33.2111 26.9312 33.817C27.8354 34.4229 28.8989 34.747 29.9872 34.7484C30.9394 34.744 31.8737 34.4898 32.6968 34.0112L49.8234 47.3383C46.6747 52.0949 46.7589 58.294 50.0355 62.9635L44.8265 68.174C44.4053 68.0395 43.9668 67.9679 43.5247 67.9619C41.03 67.9641 39.0091 69.9872 39.0097 72.4818C39.0103 74.9763 41.0326 76.9983 43.5271 76.999C46.0217 76.9996 48.0448 74.9787 48.047 72.484C48.0411 72.042 47.9695 71.6033 47.8346 71.1824L52.9878 66.0273C57.5922 69.5719 63.916 69.8773 68.8406 66.7929C73.7651 63.7083 76.2503 57.885 75.0703 52.1954C73.8904 46.5057 69.2946 42.1512 63.5495 41.279ZM61.4136 62.1363C60.4616 62.1619 59.5141 61.9965 58.627 61.6499C57.74 61.3033 56.9314 60.7824 56.249 60.1181C55.5666 59.4538 55.0242 58.6595 54.6538 57.7821C54.2835 56.9048 54.0927 55.9621 54.0927 55.0097C54.0927 54.0574 54.2835 53.1147 54.6538 52.2373C55.0242 51.3599 55.5666 50.5656 56.249 49.9013C56.9314 49.237 57.74 48.7162 58.627 48.3695C59.5141 48.0229 60.4616 47.8575 61.4136 47.8831C65.25 48.0175 68.2913 51.1655 68.2934 55.0045C68.2951 58.8432 65.2571 61.9944 61.4207 62.1326" fill="#FF7A59"/>
</g>
<defs>
<filter id="filter0_b_28_788" x="-4" y="-4" width="108" height="108" filterUnits="userSpaceOnUse" color-interpolation-filters="sRGB">
<feFlood flood-opacity="0" result="BackgroundImageFix"/>
<feGaussianBlur in="BackgroundImageFix" stdDeviation="2"/>
<feComposite in2="SourceAlpha" operator="in" result="effect1_backgroundBlur_28_788"/>
<feBlend mode="normal" in="SourceGraphic" in2="effect1_backgroundBlur_28_788" result="shape"/>
</filter>
<linearGradient id="paint0_linear_28_788" x1="190" y1="208.5" x2="-7.5" y2="-26.5" gradientUnits="userSpaceOnUse">
<stop stop-color="white"/>
<stop offset="1" stop-color="white" stop-opacity="0.4"/>
</linearGradient>
</defs>
</svg>
