<?xml version="1.0" encoding="UTF-8" standalone="no"?>
<!-- Created with Inkscape (http://www.inkscape.org/) -->

<svg
   width="366.76282"
   height="95.174767"
   viewBox="0 0 316.32224 82.085465"
   version="1.1"
   id="svg5"
   sodipodi:docname="changelogg.svg"
   inkscape:version="1.3.1 (91b66b0783, 2023-11-16)"
   xmlns:inkscape="http://www.inkscape.org/namespaces/inkscape"
   xmlns:sodipodi="http://sodipodi.sourceforge.net/DTD/sodipodi-0.dtd"
   xmlns="http://www.w3.org/2000/svg"
   xmlns:svg="http://www.w3.org/2000/svg">
  <sodipodi:namedview
     id="namedview2"
     pagecolor="#ffffff"
     bordercolor="#000000"
     borderopacity="0.25"
     inkscape:showpageshadow="2"
     inkscape:pageopacity="0.0"
     inkscape:pagecheckerboard="0"
     inkscape:deskcolor="#d1d1d1"
     inkscape:zoom="2.1771562"
     inkscape:cx="81.758029"
     inkscape:cy="-10.334582"
     inkscape:window-width="2560"
     inkscape:window-height="1377"
     inkscape:window-x="892"
     inkscape:window-y="-8"
     inkscape:window-maximized="1"
     inkscape:current-layer="svg5" />
  <defs
     id="SvgjsDefs3367" />
  <path
     style="fill:#00c88c;stroke-width:5.98291;fill-opacity:1"
     d="m 41.042731,31.230766 c 5.384615,0 9.692306,4.42735 9.692306,9.811965 0,5.384615 -4.307691,9.692307 -9.692306,9.692307 -5.504273,0 -9.811965,-4.307692 -9.811965,-9.692307 0,-5.384615 4.307692,-9.811965 9.811965,-9.811965 z"
     id="path17" />
  <path
     style="fill:#111111;stroke-width:5.98291"
     d="m 41.042731,0 c 11.247861,0 21.538461,4.6666662 28.957261,11.965811 l -9.45299,9.692307 c -5.02564,-5.025641 -11.96581,-8.136752 -19.504271,-8.136752 -15.19658,0 -27.401707,12.324785 -27.401707,27.521365 0,15.076922 12.205127,27.521365 27.401707,27.521365 7.538461,0 14.478631,-3.230769 19.504271,-8.136751 l 9.45299,9.572648 c -7.4188,7.538461 -17.7094,12.085469 -28.957261,12.085469 C 18.30769,82.085462 0,63.658113 0,41.042731 0,18.30769 18.30769,0 41.042731,0 Z"
     id="path1" />
  <path
     id="path16"
     style="fill:#111111;stroke-width:2.45141"
     d="m 308.57579,32.525867 h 7.74645 v 25.494657 c 0,7.746453 -7.84451,10.099806 -13.53178,10.099806 -2.69655,0 -5.14796,-0.441253 -6.71686,-1.274733 v -6.324636 c 1.5689,0.83348 3.92225,1.176677 6.71686,1.176677 4.55962,0 5.78533,-2.353353 5.78533,-3.677114 v -2.549466 c -0.3432,0.882508 -2.64752,3.039748 -6.56978,3.039748 -5.83435,0 -12.55122,-4.167396 -12.55122,-13.286639 0,-8.776045 6.71687,-13.139553 12.55122,-13.139553 3.92226,0 6.22658,2.255296 6.56978,2.794606 z m -5.44213,19.170021 c 3.18683,0 5.78532,-2.206268 5.78532,-6.471721 0,-4.118367 -2.59849,-6.324636 -5.78532,-6.324636 -3.33392,0 -6.17755,2.255297 -6.17755,6.324636 0,4.216424 2.84363,6.471721 6.17755,6.471721 z" />
  <path
     id="path14"
     style="fill:#111111;stroke-width:2.45141"
     d="m 277.49192,32.525867 h 7.74645 v 25.494657 c 0,7.746453 -7.84451,10.099806 -13.53178,10.099806 -2.69655,0 -5.14796,-0.441253 -6.71686,-1.274733 v -6.324636 c 1.5689,0.83348 3.92225,1.176677 6.71686,1.176677 4.55962,0 5.78533,-2.353353 5.78533,-3.677114 v -2.549466 c -0.3432,0.882508 -2.64752,3.039748 -6.56978,3.039748 -5.83435,0 -12.55122,-4.167396 -12.55122,-13.286639 0,-8.776045 6.71687,-13.139553 12.55122,-13.139553 3.92226,0 6.22658,2.255296 6.56978,2.794606 z m -5.44213,19.170021 c 3.18683,0 5.78532,-2.206268 5.78532,-6.471721 0,-4.118367 -2.59849,-6.324636 -5.78532,-6.324636 -3.33392,0 -6.17755,2.255297 -6.17755,6.324636 0,4.216424 2.84363,6.471721 6.17755,6.471721 z" />
  <path
     id="path12"
     style="fill:#111111;stroke-width:2.45141"
     d="m 241.50523,32.084614 c 5.78532,0 13.43372,4.363508 13.43372,13.286638 0,8.972158 -7.6484,13.139554 -13.43372,13.139554 -5.78533,0 -13.43372,-4.167396 -13.43372,-13.139554 0,-8.92313 7.64839,-13.286638 13.43372,-13.286638 z m 0,6.814917 c -2.94169,0 -5.93241,2.255297 -5.93241,6.471721 0,4.069339 2.99072,6.324636 5.93241,6.324636 2.94169,0 5.98144,-2.255297 5.98144,-6.324636 0,-4.216424 -3.03975,-6.471721 -5.98144,-6.471721 z" />
  <path
     style="fill:#111111;stroke-width:2.45141"
     d="m 223.85508,23.357596 v 34.662928 h -7.74645 V 23.357596 Z"
     id="path11" />
  <path
     id="path9"
     style="fill:#111111;stroke-width:2.45141"
     d="m 199.43905,32.084614 c 5.78532,0 13.87497,4.363508 12.25704,15.885132 h -17.79723 c 0.88251,2.647522 3.18683,4.020311 6.27561,4.020311 3.1378,0 4.11837,-0.686395 5.88338,-1.421817 l 4.26545,4.118367 c -2.25529,2.206269 -5.29504,3.824199 -10.443,3.824199 -6.32464,0 -13.87498,-4.363509 -13.87498,-13.139554 0,-8.92313 7.6484,-13.286638 13.43373,-13.286638 z m 0,6.618805 c -2.20627,0 -4.46157,1.274732 -5.44213,3.824198 h 10.83523 c -0.78446,-2.549466 -3.18684,-3.824198 -5.3931,-3.824198 z" />
  <path
     id="path7"
     style="fill:#111111;stroke-width:2.45141"
     d="m 174.04244,32.525867 h 7.74646 v 25.494657 c 0,7.746453 -7.84451,10.099806 -13.53178,10.099806 -2.69655,0 -5.14796,-0.441253 -6.71686,-1.274733 v -6.324636 c 1.5689,0.83348 3.92225,1.176677 6.71686,1.176677 4.55962,0 5.78532,-2.353353 5.78532,-3.677114 v -2.549466 c -0.34319,0.882508 -2.64752,3.039748 -6.56977,3.039748 -5.83436,0 -12.55122,-4.167396 -12.55122,-13.286639 0,-8.776045 6.71686,-13.139553 12.55122,-13.139553 3.92225,0 6.22658,2.255296 6.56977,2.794606 z m -5.44212,19.170021 c 3.18683,0 5.78532,-2.206268 5.78532,-6.471721 0,-4.118367 -2.59849,-6.324636 -5.78532,-6.324636 -3.33392,0 -6.17756,2.255297 -6.17756,6.324636 0,4.216424 2.84364,6.471721 6.17756,6.471721 z" />
  <path
     style="fill:#111111;stroke-width:2.45141"
     d="m 141.38967,32.133642 c 4.75574,0 9.60953,3.186832 9.60953,11.276482 v 14.6104 h -7.74646 V 43.949435 c 0,-3.873227 -1.32376,-5.098932 -3.77517,-5.098932 -3.481,0 -5.49115,3.382945 -5.98143,4.853791 v 14.31623 h -7.74646 V 32.525867 h 7.74646 v 4.412537 c 0.49028,-1.225705 3.08877,-4.804762 7.89353,-4.804762 z"
     id="path6" />
  <path
     id="path4"
     style="fill:#111111;stroke-width:2.45141"
     d="m 113.00235,32.525869 h 7.74646 v 25.494657 h -7.74646 V 55.47106 c -0.34319,0.882508 -2.64752,3.039748 -6.56977,3.039748 -5.83436,0 -12.551218,-4.167396 -12.551218,-13.286639 0,-8.776045 6.716858,-13.139553 12.551218,-13.139553 3.92225,0 6.22658,2.255296 6.56977,2.794606 z m -5.44213,19.170021 c 3.18684,0 5.78533,-2.206268 5.78533,-6.471721 0,-4.118367 -2.59849,-6.324636 -5.78533,-6.324636 -3.33391,0 -6.17755,2.255297 -6.17755,6.324636 0,4.216424 2.84364,6.471721 6.17755,6.471721 z" />
  <path
     style="fill:#111111;stroke-width:2.45141"
     d="m 80.349582,32.133644 c 4.75574,0 9.60953,3.186832 9.60953,11.276482 v 14.6104 h -7.74646 V 43.949435 c 0,-3.873227 -1.32376,-5.098932 -3.77517,-5.098932 -3.481,0 -5.49115,3.382945 -5.98144,4.853791 v 14.31623 h -7.74645 V 23.357596 h 7.74645 v 13.580808 c 0.49029,-1.225705 3.08878,-4.804762 7.89354,-4.804762 z"
     id="path3" />
</svg>
