<svg width="100" height="100" viewBox="0 0 100 100" fill="none" xmlns="http://www.w3.org/2000/svg">
<g filter="url(#filter0_b_28_780)">
<rect width="100" height="100" rx="11" fill="url(#paint0_linear_28_780)"/>
<rect x="0.5" y="0.5" width="99" height="99" rx="10.5" stroke="white" stroke-opacity="0.4"/>
<mask id="mask0_28_780" style="mask-type:luminance" maskUnits="userSpaceOnUse" x="13" y="24" width="74" height="52">
<path d="M13 24H86.4994V75.3415H13V24Z" fill="white"/>
</mask>
<g mask="url(#mask0_28_780)">
<path fill-rule="evenodd" clip-rule="evenodd" d="M43.5185 29.6209C45.891 27.1511 49.1931 25.6217 52.841 25.6217C57.7049 25.6217 61.9204 28.3238 64.1902 32.3501C66.205 31.4494 68.3874 30.9844 70.5944 30.9855C79.3494 30.9855 86.4562 38.1463 86.4562 46.9824C86.4562 55.8186 79.3494 62.9794 70.5944 62.9794C69.5243 62.9794 68.4813 62.8718 67.4598 62.6686C65.4737 66.2085 61.6772 68.6134 57.3537 68.6134C55.5934 68.6169 53.8557 68.2176 52.2736 67.4461C50.2604 72.1749 45.5721 75.4986 40.1137 75.4986C34.4121 75.4986 29.5752 71.9047 27.7107 66.8516C26.8809 67.0267 26.035 67.1147 25.1869 67.1142C18.4044 67.1142 12.9189 61.5477 12.9189 54.7112C12.9189 50.1175 15.3887 46.1183 19.0529 43.9565C18.2756 42.1658 17.8754 40.2341 17.8775 38.2819C17.8775 30.3916 24.2816 24.0144 32.172 24.0144C36.7927 24.0144 40.9271 26.2167 43.5212 29.6349" fill="#00A1E0"/>
</g>
<path fill-rule="evenodd" clip-rule="evenodd" d="M23.6305 50.6977C23.5843 50.8183 23.647 50.8434 23.6618 50.8647C23.7999 50.9647 23.9402 51.0371 24.0807 51.1185C24.8319 51.5157 25.5398 51.6319 26.2802 51.6319C27.7881 51.6319 28.7257 50.8293 28.7257 49.5377V49.5123C28.7257 48.3179 27.6665 47.8829 26.6775 47.5721L26.548 47.5302C25.7995 47.2876 25.1537 47.0763 25.1537 46.5845V46.5593C25.1537 46.1378 25.532 45.827 26.1157 45.827C26.7642 45.827 27.537 46.043 28.0315 46.3161C28.0315 46.3161 28.178 46.4107 28.2312 46.2694C28.2601 46.1929 28.5122 45.5182 28.5393 45.4425C28.5679 45.3634 28.5177 45.3036 28.466 45.2728C27.8986 44.9269 27.1149 44.6919 26.3043 44.6919L26.1538 44.6924C24.773 44.6924 23.8083 45.5274 23.8083 46.7217V46.7474C23.8083 48.0066 24.8729 48.4174 25.8674 48.7011L26.0273 48.7508C26.7515 48.9735 27.3784 49.1669 27.3784 49.675V49.7004C27.3784 50.1678 26.9704 50.5164 26.3165 50.5164C26.0622 50.5164 25.2518 50.5121 24.3736 49.9571C24.2674 49.8952 24.2069 49.8506 24.125 49.8006C24.0817 49.7744 23.9737 49.7271 23.9266 49.8687L23.6294 50.6956M45.7062 50.6956C45.66 50.8161 45.7227 50.8412 45.7381 50.8626C45.8757 50.9625 46.0165 51.035 46.157 51.1163C46.9082 51.5135 47.6162 51.6297 48.3566 51.6297C49.8644 51.6297 50.802 50.8272 50.802 49.5355V49.5101C50.802 48.3158 49.7455 47.8807 48.7538 47.57L48.6243 47.5281C47.8758 47.2854 47.23 47.0741 47.23 46.5823V46.5572C47.23 46.1356 47.6083 45.8249 48.192 45.8249C48.8405 45.8249 49.6106 46.0408 50.1078 46.314C50.1078 46.314 50.2543 46.4086 50.3078 46.2672C50.3364 46.1908 50.5888 45.516 50.6131 45.4404C50.6421 45.3612 50.5915 45.3015 50.5402 45.2707C49.9727 44.9248 49.1891 44.6897 48.3784 44.6897L48.2277 44.6902C46.8468 44.6902 45.8822 45.5252 45.8822 46.7196V46.7452C45.8822 48.0045 46.9468 48.4152 47.9412 48.6989L48.1009 48.7486C48.8278 48.9713 49.452 49.1648 49.452 49.6728V49.6982C49.452 50.1657 49.044 50.5143 48.3901 50.5143C48.1352 50.5143 47.3227 50.5099 46.4472 49.9549C46.341 49.893 46.2788 49.8503 46.1983 49.7984C46.171 49.7812 46.0438 49.7314 46.0002 49.8665L45.703 50.6934M60.7812 48.1642C60.7812 48.8938 60.645 49.4693 60.3786 49.8774C60.1127 50.28 59.7111 50.4772 59.1518 50.4772C58.5924 50.4772 58.1925 50.2816 57.9304 49.8801C57.6664 49.4747 57.5332 48.8965 57.5332 48.1669C57.5332 47.4373 57.6672 46.8644 57.9304 46.4618C58.192 46.0619 58.5897 45.87 59.1518 45.87C59.7138 45.87 60.1138 46.0638 60.3786 46.4618C60.6466 46.8644 60.7812 47.4373 60.7812 48.1669M62.0404 46.8131C61.9164 46.3942 61.7243 46.0267 61.4676 45.7187C61.2106 45.4106 60.8866 45.162 60.5002 44.9837C60.1165 44.804 59.6625 44.7135 59.1491 44.7135C58.6357 44.7135 58.1844 44.8045 57.798 44.9837C57.4143 45.1631 57.0873 45.4106 56.8306 45.7187C56.5744 46.0267 56.382 46.3942 56.2577 46.8131C56.1348 47.2292 56.0724 47.6832 56.0724 48.1669C56.0724 48.6506 56.1348 49.1045 56.2577 49.5207C56.3812 49.9395 56.5739 50.307 56.8306 50.615C57.0876 50.9231 57.4143 51.169 57.798 51.3446C58.1844 51.5197 58.6384 51.6089 59.1491 51.6089C59.6598 51.6089 60.1138 51.5197 60.4975 51.3446C60.8812 51.1695 61.2081 50.9231 61.4649 50.615C61.7213 50.307 61.9134 49.9395 62.0377 49.5207C62.1604 49.1045 62.2228 48.6506 62.2228 48.1669C62.2228 47.6859 62.1604 47.2292 62.0377 46.8131M72.3871 50.2719C72.3457 50.1495 72.2263 50.1957 72.2263 50.1957C72.0434 50.2657 71.848 50.3305 71.6399 50.3629C71.4302 50.3959 71.1968 50.4124 70.9509 50.4124C70.3429 50.4124 69.8565 50.2311 69.5106 49.8719C69.162 49.5126 68.9675 48.9343 68.9702 48.1507C68.9721 47.4373 69.1445 46.9022 69.4539 46.4915C69.7592 46.0862 70.2294 45.8754 70.8509 45.8754C71.3697 45.8754 71.7669 45.9357 72.1831 46.0659C72.1831 46.0659 72.2817 46.1089 72.329 45.9789C72.4395 45.6736 72.5211 45.4547 72.6397 45.1196C72.6732 45.0237 72.5911 44.9832 72.5611 44.9715C72.3979 44.9078 72.0126 44.8032 71.7207 44.7591C71.4478 44.7175 71.1316 44.6959 70.775 44.6959C70.2453 44.6959 69.7751 44.7864 69.3725 44.9659C68.9699 45.145 68.6294 45.3928 68.3592 45.7009C68.089 46.0089 67.8836 46.3764 67.7458 46.7952C67.6093 47.2114 67.5404 47.668 67.5404 48.1517C67.5404 49.1948 67.8215 50.0406 68.3781 50.6594C68.9348 51.2809 69.7724 51.5943 70.8641 51.5943C71.51 51.5943 72.172 51.4638 72.6476 51.2755C72.6476 51.2755 72.7384 51.2317 72.6989 51.1258L72.3882 50.2719M74.5904 47.4616C74.6507 47.0563 74.7618 46.7185 74.9363 46.4564C75.1976 46.0565 75.5957 45.8376 76.155 45.8376C76.7144 45.8376 77.0846 46.0575 77.3494 46.4564C77.525 46.7198 77.6018 47.0698 77.6304 47.4616L74.5769 47.4611L74.5904 47.4616ZM78.8329 46.5699C78.7256 46.1673 78.46 45.7592 78.287 45.5728C78.0114 45.2782 77.7439 45.0702 77.4764 44.9567C77.0902 44.7924 76.6747 44.7082 76.255 44.7089C75.7227 44.7089 75.239 44.7989 74.8471 44.9818C74.4553 45.1661 74.1257 45.4169 73.8663 45.7303C73.6071 46.0438 73.4123 46.414 73.288 46.8382C73.1637 47.257 73.101 47.7164 73.101 48.1974C73.101 48.6892 73.1661 49.1459 73.2942 49.5593C73.4236 49.9754 73.632 50.3402 73.913 50.6429C74.194 50.9482 74.5534 51.186 74.9858 51.3536C75.4154 51.5197 75.9369 51.6059 76.5341 51.604C77.7663 51.6 78.4148 51.3257 78.6797 51.1771C78.7269 51.1506 78.7715 51.105 78.7159 50.9734L78.4375 50.1924C78.3948 50.076 78.277 50.1181 78.277 50.1181C77.9717 50.2321 77.5393 50.437 76.526 50.4343C75.864 50.4332 75.3749 50.2378 75.0668 49.9317C74.7534 49.6182 74.5967 49.1615 74.5723 48.513L78.8418 48.5163C78.8418 48.5163 78.9542 48.5152 78.9658 48.4055C78.9704 48.3601 79.112 47.53 78.8385 46.5707L78.8329 46.5699ZM40.4618 47.4616C40.5221 47.0563 40.6334 46.7185 40.8077 46.4564C41.0693 46.0565 41.4671 45.8376 42.0264 45.8376C42.5858 45.8376 42.956 46.0575 43.2208 46.4564C43.3962 46.7198 43.4729 47.0698 43.5018 47.4616L40.4483 47.4611L40.4618 47.4616ZM44.7043 46.5699C44.5973 46.1673 44.3314 45.7592 44.1584 45.5728C43.8828 45.2782 43.6153 45.0702 43.3478 44.9567C42.9616 44.7924 42.5461 44.7082 42.1264 44.7089C41.5941 44.7089 41.1104 44.7989 40.7186 44.9818C40.3267 45.1661 39.9971 45.4169 39.7377 45.7303C39.4791 46.0438 39.2837 46.414 39.1594 46.8382C39.0354 47.257 38.9729 47.7164 38.9729 48.1974C38.9729 48.6892 39.0375 49.1459 39.1664 49.5593C39.2956 49.9754 39.5042 50.3402 39.7825 50.6429C40.0635 50.9482 40.4229 51.186 40.8553 51.3536C41.2849 51.5197 41.8038 51.6059 42.4036 51.604C43.6358 51.6 44.2844 51.3257 44.5492 51.1771C44.5962 51.1506 44.641 51.105 44.5851 50.9734L44.3068 50.1924C44.2638 50.076 44.146 50.1181 44.146 50.1181C43.8407 50.2321 43.4083 50.437 42.395 50.4343C41.7357 50.4332 41.2439 50.2378 40.9358 49.9317C40.6224 49.6182 40.4656 49.1615 40.4413 48.513L44.7108 48.5163C44.7108 48.5163 44.8232 48.5152 44.8348 48.4055C44.8394 48.3601 44.981 47.53 44.7073 46.5707L44.7043 46.5699ZM31.2474 50.2448C31.0801 50.1114 31.0569 50.0787 31.0015 49.9919C30.9169 49.8614 30.8737 49.6758 30.8737 49.438C30.8737 49.0651 30.998 48.7949 31.2547 48.6138C31.252 48.6143 31.6222 48.295 32.4923 48.3058C32.8796 48.3127 33.266 48.3456 33.6488 48.4044V50.3419H33.6494C33.6494 50.3419 33.1089 50.4583 32.4982 50.4951C31.6308 50.5472 31.2471 50.2454 31.2498 50.2462L31.2474 50.2448ZM32.9444 47.2454C32.7714 47.2327 32.5471 47.2265 32.2796 47.2265C31.9148 47.2265 31.5609 47.2719 31.2312 47.3611C30.8988 47.4508 30.5989 47.5897 30.3422 47.7745C30.0848 47.9582 29.873 48.1985 29.7234 48.4771C29.5723 48.7581 29.4953 49.0878 29.4953 49.4607C29.4953 49.839 29.561 50.1659 29.6907 50.4335C29.8178 50.6988 30.0091 50.9282 30.2473 51.1009C30.4843 51.2733 30.7769 51.4008 31.1147 51.4765C31.4498 51.553 31.8281 51.5916 32.2442 51.5916C32.682 51.5916 33.117 51.5549 33.5386 51.4838C33.8976 51.4219 34.2553 51.3523 34.6114 51.2752C34.7535 51.2425 34.9113 51.1995 34.9113 51.1995C35.0167 51.1728 35.0086 51.0601 35.0086 51.0601L35.0061 47.169C35.0061 46.3151 34.7781 45.68 34.3279 45.2882C33.8793 44.8964 33.2227 44.6992 32.3715 44.6992C32.0527 44.6992 31.5365 44.7424 31.2285 44.8043C31.2285 44.8043 30.2989 44.9848 29.9152 45.2853C29.9152 45.2853 29.8309 45.3371 29.8769 45.4547L30.1795 46.2653C30.2171 46.3705 30.3195 46.3345 30.3195 46.3345C30.3195 46.3345 30.3516 46.3218 30.3895 46.2994C31.2082 45.8535 32.2459 45.867 32.2459 45.867C32.7052 45.867 33.0619 45.9603 33.2997 46.1427C33.5324 46.3213 33.651 46.5912 33.651 47.1587V47.3389C33.2862 47.286 32.9484 47.2554 32.9484 47.2554L32.9444 47.2454ZM67.2621 45.0485C67.2683 45.0343 67.2715 45.019 67.2716 45.0034C67.2717 44.9879 67.2686 44.9725 67.2626 44.9582C67.2567 44.9439 67.2479 44.9309 67.2368 44.9201C67.2257 44.9092 67.2125 44.9007 67.1981 44.8951C67.1254 44.8675 66.763 44.791 66.4847 44.7737C65.9497 44.7402 65.6524 44.8305 65.3849 44.9505C65.1206 45.0696 64.8283 45.2612 64.6661 45.4828L64.6656 44.964C64.6656 44.8926 64.6151 44.8351 64.5432 44.8351H63.4515C63.3807 44.8351 63.3294 44.8926 63.3294 44.964V51.3141C63.3294 51.3484 63.3431 51.3813 63.3673 51.4055C63.3916 51.4298 63.4245 51.4435 63.4588 51.4435H64.5775C64.6118 51.4435 64.6446 51.4298 64.6688 51.4055C64.6931 51.3813 64.7067 51.3484 64.7067 51.3141V48.1255C64.7067 47.6986 64.7537 47.2743 64.8474 47.0068C64.9399 46.7423 65.0655 46.5312 65.2203 46.3799C65.3681 46.2338 65.5488 46.1253 65.7473 46.0638C65.9335 46.0103 66.1264 45.9832 66.3201 45.9832C66.5431 45.9832 66.7876 46.0405 66.7876 46.0405C66.8698 46.0497 66.9154 45.9994 66.9433 45.9254C67.0165 45.7306 67.2243 45.1472 67.2648 45.031" fill="#FFFFFE"/>
<path fill-rule="evenodd" clip-rule="evenodd" d="M56.8135 42.1179C56.6752 42.0761 56.5345 42.0428 56.3922 42.018C56.2008 41.986 56.007 41.971 55.8129 41.9731C55.042 41.9731 54.4342 42.1909 54.0076 42.6211C53.5839 43.048 53.2955 43.6984 53.151 44.5542L53.0988 44.8431H52.1312C52.1312 44.8431 52.0131 44.8382 51.9882 44.9671L51.8293 45.8534C51.8182 45.9383 51.8547 45.9912 51.9682 45.9907H52.9102L51.9544 51.3256C51.8796 51.7553 51.7939 52.1087 51.6991 52.3765C51.6056 52.6408 51.5143 52.8388 51.4018 52.9826C51.2929 53.1218 51.1897 53.2242 51.0116 53.2839C50.8646 53.3333 50.6955 53.356 50.5101 53.356C50.4069 53.356 50.2696 53.3388 50.1683 53.3185C50.067 53.2985 50.0143 53.2758 49.9383 53.2439C49.9383 53.2439 49.8278 53.2018 49.7843 53.3125C49.7489 53.4031 49.4979 54.0935 49.4682 54.1789C49.4379 54.2632 49.4803 54.3296 49.5338 54.3488C49.6592 54.3937 49.7524 54.4223 49.9232 54.4626C50.1605 54.5185 50.3604 54.522 50.5477 54.522C50.94 54.522 51.2975 54.4669 51.594 54.3599C51.8923 54.2521 52.152 54.0643 52.3817 53.81C52.63 53.5357 52.7862 53.2485 52.9356 52.8567C53.0834 52.4684 53.2093 51.9863 53.3101 51.4245L54.2705 45.9907H55.6745C55.6745 45.9907 55.7929 45.995 55.8175 45.8667L55.9764 44.9804C55.9874 44.8955 55.9512 44.8425 55.8372 44.8431H54.4745C54.4813 44.8123 54.5431 44.3329 54.6996 43.8816C54.7663 43.689 54.892 43.5336 54.9984 43.4269C55.0979 43.3252 55.2203 43.249 55.3554 43.2048C55.5035 43.159 55.6579 43.1367 55.8129 43.1388C55.9412 43.1388 56.0672 43.1542 56.1631 43.1742C56.2952 43.2023 56.3466 43.2172 56.3812 43.2274C56.5201 43.2699 56.5387 43.2288 56.566 43.1615L56.8919 42.2666C56.9254 42.1704 56.8438 42.1298 56.8135 42.1179ZM37.7701 51.337C37.7701 51.4083 37.7193 51.4664 37.648 51.4664H36.5177C36.4461 51.4664 36.3953 51.4083 36.3953 51.337V42.2393C36.3953 42.1682 36.4461 42.1106 36.5177 42.1106H37.648C37.7193 42.1106 37.7701 42.1682 37.7701 42.2393V51.337Z" fill="#FFFFFE"/>
</g>
<defs>
<filter id="filter0_b_28_780" x="-4" y="-4" width="108" height="108" filterUnits="userSpaceOnUse" color-interpolation-filters="sRGB">
<feFlood flood-opacity="0" result="BackgroundImageFix"/>
<feGaussianBlur in="BackgroundImageFix" stdDeviation="2"/>
<feComposite in2="SourceAlpha" operator="in" result="effect1_backgroundBlur_28_780"/>
<feBlend mode="normal" in="SourceGraphic" in2="effect1_backgroundBlur_28_780" result="shape"/>
</filter>
<linearGradient id="paint0_linear_28_780" x1="190" y1="208.5" x2="-7.5" y2="-26.5" gradientUnits="userSpaceOnUse">
<stop stop-color="white"/>
<stop offset="1" stop-color="white" stop-opacity="0.4"/>
</linearGradient>
</defs>
</svg>
