<svg width="100" height="100" viewBox="0 0 100 100" fill="none" xmlns="http://www.w3.org/2000/svg">
<g filter="url(#filter0_b_28_795)">
<rect width="100" height="100" rx="11" fill="url(#paint0_linear_28_795)"/>
<rect x="0.5" y="0.5" width="99" height="99" rx="10.5" stroke="white" stroke-opacity="0.4"/>
<path d="M47.8258 19.1405C48.3005 19.1405 48.5379 19.3779 49.0127 19.6152C46.164 20.8022 43.3152 23.8884 41.8909 30.5355L36.6681 31.9598C38.3299 27.2119 41.6535 19.1405 47.8258 19.1405ZM50.4371 21.5144C50.9119 22.9388 51.3867 24.6006 51.3867 27.2119C51.3867 27.4493 51.3867 27.4493 51.3867 27.6867L44.5022 29.5859C45.9266 24.6006 48.3005 22.464 50.4371 21.5144ZM56.6094 25.7875L53.5233 26.7371C53.5233 26.4997 53.5233 26.2623 53.5233 26.0249C53.5233 23.8884 53.2859 22.2266 52.8111 20.8022C54.4728 21.277 55.8972 23.4136 56.6094 25.7875ZM72.0402 29.5859C72.0402 29.3485 71.8028 29.1111 71.5654 29.1111C71.0906 29.1111 66.1053 28.6363 66.1053 28.6363C66.1053 28.6363 62.5443 25.0754 62.0695 24.838C61.5947 24.3632 60.8825 24.6006 60.6451 24.6006C60.6451 24.6006 59.933 24.838 58.746 25.3128C57.559 21.9892 55.4224 18.9031 51.8615 18.9031H51.6241C50.6745 17.4787 49.2501 17.0039 48.0632 17.0039C39.5169 16.7665 35.4812 27.4493 34.0568 32.9094C32.1576 33.3842 30.2584 34.0964 28.1219 34.8086C26.2227 35.2834 26.2227 35.5208 25.9853 37.1826C25.7479 38.3695 21 75.8781 21 75.8781L58.746 83L79.162 78.4895C79.162 78.4895 72.0402 30.0607 72.0402 29.5859Z" fill="#8DB849"/>
<path d="M71.3281 29.1111C71.0907 29.1111 66.1054 28.6363 66.1054 28.6363C66.1054 28.6363 62.5444 25.0754 62.0696 24.838C61.8322 24.6006 61.8322 24.6006 61.5948 24.6006L58.7461 83L79.1622 78.4895C79.1622 78.4895 72.0403 30.0607 72.0403 29.5859C72.0403 29.3485 71.5655 29.1111 71.3281 29.1111Z" fill="#5A863E"/>
<path d="M51.8615 40.5061L49.2502 48.1028C49.2502 48.1028 47.1136 46.9158 44.2648 46.9158C40.2291 46.9158 39.9917 49.2898 39.9917 50.002C39.9917 53.3255 49.0128 54.7499 49.0128 62.8214C49.0128 69.231 44.977 73.2668 39.5169 73.2668C33.1072 73.2668 29.7837 69.231 29.7837 69.231L31.4455 63.5335C31.4455 63.5335 34.769 66.3823 37.6178 66.3823C39.5169 66.3823 40.2291 64.9579 40.2291 63.7709C40.2291 59.2604 32.8698 59.023 32.8698 51.6637C32.8698 45.4914 37.3804 39.5565 46.164 39.5565C50.1998 39.3191 51.8615 40.5061 51.8615 40.5061Z" fill="#FFFFFE"/>
</g>
<defs>
<filter id="filter0_b_28_795" x="-4" y="-4" width="108" height="108" filterUnits="userSpaceOnUse" color-interpolation-filters="sRGB">
<feFlood flood-opacity="0" result="BackgroundImageFix"/>
<feGaussianBlur in="BackgroundImageFix" stdDeviation="2"/>
<feComposite in2="SourceAlpha" operator="in" result="effect1_backgroundBlur_28_795"/>
<feBlend mode="normal" in="SourceGraphic" in2="effect1_backgroundBlur_28_795" result="shape"/>
</filter>
<linearGradient id="paint0_linear_28_795" x1="190" y1="208.5" x2="-7.5" y2="-26.5" gradientUnits="userSpaceOnUse">
<stop stop-color="white"/>
<stop offset="1" stop-color="white" stop-opacity="0.4"/>
</linearGradient>
</defs>
</svg>
